<svg width="16" height="14" viewBox="0 0 16 14" fill="none" xmlns="http://www.w3.org/2000/svg">
<path d="M14.0006 0.866699H2.0006C1.2006 0.866699 0.533936 1.5067 0.533936 2.33337V9.37337C0.533936 10.1734 1.2006 10.84 2.0006 10.84H7.46727V12.2H3.7606C3.46727 12.2 3.22727 12.44 3.22727 12.7334C3.22727 13.0267 3.46727 13.2667 3.7606 13.2667H12.2406C12.5339 13.2667 12.7739 13.0267 12.7739 12.7334C12.7739 12.44 12.5339 12.2 12.2406 12.2H8.53394V10.84H14.0006C14.8006 10.84 15.4673 10.1734 15.4673 9.37337V2.33337C15.4673 1.5067 14.8006 0.866699 14.0006 0.866699ZM5.70727 7.9867C5.70727 8.28003 5.46727 8.52003 5.17394 8.52003C4.8806 8.52003 4.6406 8.28003 4.6406 7.9867V6.57337C4.6406 6.28003 4.8806 6.04003 5.17394 6.04003C5.46727 6.04003 5.70727 6.28003 5.70727 6.57337V7.9867ZM8.53394 7.9867C8.53394 8.28003 8.29394 8.52003 8.0006 8.52003C7.70727 8.52003 7.46727 8.28003 7.46727 7.9867V5.13337C7.46727 4.84003 7.70727 4.60003 8.0006 4.60003C8.29394 4.60003 8.53394 4.84003 8.53394 5.13337V7.9867ZM11.3606 7.9867C11.3606 8.28003 11.1206 8.52003 10.8273 8.52003C10.5339 8.52003 10.2939 8.28003 10.2939 7.9867V3.72003C10.2939 3.4267 10.5339 3.1867 10.8273 3.1867C11.1206 3.1867 11.3606 3.4267 11.3606 3.72003V7.9867Z" fill="#ABB0C0"/>
</svg>