<svg width="16" height="16" viewBox="0 0 16 16" fill="none" xmlns="http://www.w3.org/2000/svg">
<path d="M8.00005 8.97302C9.56005 8.97302 11.12 9.18513 12.68 9.60896C13.405 9.80586 14.0437 10.2282 14.4987 10.8115C14.9538 11.3948 15.2001 12.1069 15.2 12.8392V13.6433C15.2 14.0562 15.0315 14.4521 14.7314 14.7441C14.4314 15.036 14.0244 15.2 13.6 15.2H2.40005C1.9757 15.2 1.56874 15.036 1.26868 14.7441C0.96862 14.4521 0.800049 14.0562 0.800049 13.6433V12.8388C0.800018 12.1066 1.04633 11.3944 1.50136 10.8111C1.9564 10.2278 2.59514 9.80547 3.32005 9.60857C4.88005 9.18552 6.44005 8.97302 8.00005 8.97302ZM7.99885 9.7514C7.61925 9.7514 7.42325 9.881 7.41085 10.1406L6.84005 13.0237C6.8278 13.0854 6.83108 13.149 6.8496 13.2092C6.86813 13.2694 6.90136 13.3243 6.94645 13.3693L7.71405 14.136C7.75131 14.1732 7.79585 14.2027 7.84504 14.2229C7.89423 14.2431 7.94707 14.2535 8.00045 14.2535C8.05383 14.2535 8.10667 14.2431 8.15586 14.2229C8.20504 14.2027 8.24958 14.1732 8.28685 14.136L9.05485 13.3693C9.09986 13.3243 9.13302 13.2694 9.15148 13.2092C9.16993 13.149 9.17315 13.0854 9.16085 13.0237L8.58885 10.1406C8.57525 9.881 8.37845 9.7514 7.99885 9.7514ZM8.00005 0.800049C10.2092 0.800049 12 2.54245 12 4.69194C12 6.84143 10.2092 8.58383 8.00005 8.58383C5.79085 8.58383 4.00005 6.84143 4.00005 4.69194C4.00005 2.54245 5.79085 0.800049 8.00005 0.800049Z" fill="white"/>
</svg>
