<svg width="16" height="15" viewBox="0 0 16 15" fill="none" xmlns="http://www.w3.org/2000/svg">
<path d="M9 1.397C9 1.693 8.87133 1.959 8.66667 2.14233V3.397H12C12.5304 3.397 13.0391 3.60771 13.4142 3.98278C13.7893 4.35785 14 4.86656 14 5.397V12.9859C14 13.5163 13.7893 14.025 13.4142 14.4001C13.0391 14.7752 12.5304 14.9859 12 14.9859H4C3.46957 14.9859 2.96086 14.7752 2.58579 14.4001C2.21071 14.025 2 13.5163 2 12.9859V5.397C2 4.86656 2.21071 4.35785 2.58579 3.98278C2.96086 3.60771 3.46957 3.397 4 3.397H7.33333V2.14233C7.209 2.03112 7.11446 1.89058 7.05833 1.73351C7.00219 1.57643 6.98624 1.4078 7.01193 1.24299C7.03761 1.07817 7.10412 0.922394 7.20539 0.789848C7.30667 0.657301 7.43949 0.552194 7.59176 0.484097C7.74404 0.416 7.91093 0.387077 8.07724 0.39996C8.24354 0.412843 8.40399 0.467125 8.54396 0.557861C8.68393 0.648597 8.79898 0.772906 8.87863 0.919468C8.95828 1.06603 9 1.23019 9 1.397ZM0 7.79987C0 7.43168 0.298477 7.1332 0.666667 7.1332C1.03486 7.1332 1.33333 7.43168 1.33333 7.79987V10.4665C1.33333 10.8347 1.03486 11.1332 0.666667 11.1332C0.298477 11.1332 0 10.8347 0 10.4665V7.79987ZM16 7.79987C16 7.43168 15.7015 7.1332 15.3333 7.1332C14.9651 7.1332 14.6667 7.43168 14.6667 7.79987V10.4665C14.6667 10.8347 14.9651 11.1332 15.3333 11.1332C15.7015 11.1332 16 10.8347 16 10.4665V7.79987ZM6 10.1332C6.26522 10.1332 6.51957 10.0278 6.70711 9.84031C6.89464 9.65277 7 9.39842 7 9.1332C7 8.86799 6.89464 8.61363 6.70711 8.4261C6.51957 8.23856 6.26522 8.1332 6 8.1332C5.73478 8.1332 5.48043 8.23856 5.29289 8.4261C5.10536 8.61363 5 8.86799 5 9.1332C5 9.39842 5.10536 9.65277 5.29289 9.84031C5.48043 10.0278 5.73478 10.1332 6 10.1332ZM11 9.1332C11 8.86799 10.8946 8.61363 10.7071 8.4261C10.5196 8.23856 10.2652 8.1332 10 8.1332C9.73478 8.1332 9.48043 8.23856 9.29289 8.4261C9.10536 8.61363 9 8.86799 9 9.1332C9 9.39842 9.10536 9.65277 9.29289 9.84031C9.48043 10.0278 9.73478 10.1332 10 10.1332C10.2652 10.1332 10.5196 10.0278 10.7071 9.84031C10.8946 9.65277 11 9.39842 11 9.1332Z" fill="#8E93A6"/>
</svg>
