<svg width="16" height="16" viewBox="0 0 16 16" fill="none" xmlns="http://www.w3.org/2000/svg">
<path d="M11.5 1.5C11.6326 1.5 11.7598 1.55268 11.8536 1.64645C11.9473 1.74021 12 1.86739 12 2V3H14C14.2652 3 14.5196 3.10536 14.7071 3.29289C14.8946 3.48043 15 3.73478 15 4V13C15 13.2652 14.8946 13.5196 14.7071 13.7071C14.5196 13.8946 14.2652 14 14 14H2C1.73478 14 1.48043 13.8946 1.29289 13.7071C1.10536 13.5196 1 13.2652 1 13V4C1 3.73478 1.10536 3.48043 1.29289 3.29289C1.48043 3.10536 1.73478 3 2 3H4V2C4 1.86739 4.05268 1.74021 4.14645 1.64645C4.24021 1.55268 4.36739 1.5 4.5 1.5C4.63261 1.5 4.75979 1.55268 4.85355 1.64645C4.94732 1.74021 5 1.86739 5 2V3H11V2C11 1.86739 11.0527 1.74021 11.1464 1.64645C11.2402 1.55268 11.3674 1.5 11.5 1.5ZM3.875 10.5H3.125C3.03038 10.5 2.93926 10.5357 2.8699 10.6001C2.80054 10.6645 2.75806 10.7526 2.751 10.847L2.75 10.875V11.625C2.74999 11.7196 2.78574 11.8107 2.8501 11.8801C2.91445 11.9495 3.00265 11.9919 3.097 11.999L3.125 12H3.875C3.96962 12 4.06074 11.9643 4.1301 11.8999C4.19946 11.8355 4.24194 11.7474 4.249 11.653L4.25 11.625V10.875C4.25001 10.7804 4.21426 10.6893 4.1499 10.6199C4.08555 10.5505 3.99735 10.5081 3.903 10.501L3.875 10.5ZM6.875 10.5H6.125C6.03038 10.5 5.93926 10.5357 5.8699 10.6001C5.80054 10.6645 5.75806 10.7526 5.751 10.847L5.75 10.875V11.625C5.74999 11.7196 5.78574 11.8107 5.8501 11.8801C5.91445 11.9495 6.00265 11.9919 6.097 11.999L6.125 12H6.875C6.96962 12 7.06074 11.9643 7.1301 11.8999C7.19946 11.8355 7.24194 11.7474 7.249 11.653L7.25 11.625V10.875C7.25001 10.7804 7.21426 10.6893 7.1499 10.6199C7.08555 10.5505 6.99735 10.5081 6.903 10.501L6.875 10.5ZM9.875 10.5H9.125C9.03038 10.5 8.93926 10.5357 8.8699 10.6001C8.80054 10.6645 8.75807 10.7526 8.751 10.847L8.75 10.875V11.625C8.74999 11.7196 8.78574 11.8107 8.8501 11.8801C8.91445 11.9495 9.00265 11.9919 9.097 11.999L9.125 12H9.875C9.96962 12 10.0607 11.9643 10.1301 11.8999C10.1995 11.8355 10.2419 11.7474 10.249 11.653L10.25 11.625V10.875C10.25 10.7804 10.2143 10.6893 10.1499 10.6199C10.0855 10.5505 9.99735 10.5081 9.903 10.501L9.875 10.5ZM12.875 10.5H12.125C12.0304 10.5 11.9393 10.5357 11.8699 10.6001C11.8005 10.6645 11.7581 10.7526 11.751 10.847L11.75 10.875V11.625C11.75 11.7196 11.7857 11.8107 11.8501 11.8801C11.9145 11.9495 12.0026 11.9919 12.097 11.999L12.125 12H12.875C12.9696 12 13.0607 11.9643 13.1301 11.8999C13.1995 11.8355 13.2419 11.7474 13.249 11.653L13.25 11.625V10.875C13.25 10.7804 13.2143 10.6893 13.1499 10.6199C13.0855 10.5505 12.9974 10.5081 12.903 10.501L12.875 10.5ZM3.875 7H3.125C3.03038 6.99999 2.93926 7.03574 2.8699 7.1001C2.80054 7.16445 2.75806 7.25265 2.751 7.347L2.75 7.375V8.125C2.74999 8.21962 2.78574 8.31074 2.8501 8.3801C2.91445 8.44946 3.00265 8.49193 3.097 8.499L3.125 8.5H3.875C3.96962 8.50001 4.06074 8.46426 4.1301 8.3999C4.19946 8.33555 4.24194 8.24735 4.249 8.153L4.25 8.125V7.375C4.25001 7.28038 4.21426 7.18926 4.1499 7.1199C4.08555 7.05054 3.99735 7.00806 3.903 7.001L3.875 7ZM6.875 7H6.125C6.03038 6.99999 5.93926 7.03574 5.8699 7.1001C5.80054 7.16445 5.75806 7.25265 5.751 7.347L5.75 7.375V8.125C5.74999 8.21962 5.78574 8.31074 5.8501 8.3801C5.91445 8.44946 6.00265 8.49193 6.097 8.499L6.125 8.5H6.875C6.96962 8.50001 7.06074 8.46426 7.1301 8.3999C7.19946 8.33555 7.24194 8.24735 7.249 8.153L7.25 8.125V7.375C7.25001 7.28038 7.21426 7.18926 7.1499 7.1199C7.08555 7.05054 6.99735 7.00806 6.903 7.001L6.875 7ZM9.875 7H9.125C9.03038 6.99999 8.93926 7.03574 8.8699 7.1001C8.80054 7.16445 8.75807 7.25265 8.751 7.347L8.75 7.375V8.125C8.74999 8.21962 8.78574 8.31074 8.8501 8.3801C8.91445 8.44946 9.00265 8.49193 9.097 8.499L9.125 8.5H9.875C9.96962 8.50001 10.0607 8.46426 10.1301 8.3999C10.1995 8.33555 10.2419 8.24735 10.249 8.153L10.25 8.125V7.375C10.25 7.28038 10.2143 7.18926 10.1499 7.1199C10.0855 7.05054 9.99735 7.00806 9.903 7.001L9.875 7ZM12.875 7H12.125C12.0304 6.99999 11.9393 7.03574 11.8699 7.1001C11.8005 7.16445 11.7581 7.25265 11.751 7.347L11.75 7.375V8.125C11.75 8.21962 11.7857 8.31074 11.8501 8.3801C11.9145 8.44946 12.0026 8.49193 12.097 8.499L12.125 8.5H12.875C12.9696 8.50001 13.0607 8.46426 13.1301 8.3999C13.1995 8.33555 13.2419 8.24735 13.249 8.153L13.25 8.125V7.375C13.25 7.28038 13.2143 7.18926 13.1499 7.1199C13.0855 7.05054 12.9974 7.00806 12.903 7.001L12.875 7ZM12.725 4.5H3.275C2.985 4.5 2.75 4.72375 2.75 5C2.75 5.2635 2.96425 5.4795 3.23575 5.49875L3.275 5.5H12.725C13.015 5.5 13.25 5.27625 13.25 5C13.25 4.72375 13.015 4.5 12.725 4.5Z" fill="#8E93A6"/>
<rect x="2" y="7" width="12" height="6" fill="#8E93A6"/>
<circle cx="5" cy="10" r="1" fill="white"/>
<circle cx="11" cy="10" r="1" fill="white"/>
</svg>
