<svg width="16" height="16" viewBox="0 0 16 16" fill="none" xmlns="http://www.w3.org/2000/svg">
<path d="M0.800049 2.15005V13.85C0.800049 14.2081 0.949372 14.5515 1.21517 14.8046C1.48097 15.0578 1.84146 15.2 2.21736 15.2H9.77635C9.90164 15.2 10.0218 15.1526 10.1104 15.0682C10.199 14.9839 10.2488 14.8694 10.2488 14.75V1.25005C10.2488 1.1307 10.199 1.01624 10.1104 0.931851C10.0218 0.847459 9.90164 0.800049 9.77635 0.800049H2.21736C1.84146 0.800049 1.48097 0.942281 1.21517 1.19545C0.949372 1.44863 0.800049 1.79201 0.800049 2.15005ZM7.54644 9.94405C7.80331 9.94405 8.04965 10.0412 8.23128 10.2142C8.4129 10.3872 8.51494 10.6219 8.51494 10.8665C8.51494 11.1112 8.4129 11.3459 8.23128 11.5189C8.04965 11.6919 7.80331 11.789 7.54644 11.789C7.28958 11.789 7.04324 11.6919 6.86162 11.5189C6.67999 11.3459 6.57795 11.1112 6.57795 10.8665C6.57795 10.6219 6.67999 10.3872 6.86162 10.2142C7.04324 10.0412 7.28958 9.94405 7.54644 9.94405ZM6.51653 12.113C6.66113 11.9832 6.84765 11.9039 7.04566 11.888H8.04723C8.24524 11.9039 8.43176 11.9832 8.57636 12.113C8.77951 12.2684 8.94475 12.4639 9.0606 12.6862C9.17644 12.9084 9.24012 13.152 9.24722 13.4C9.24722 13.967 8.54801 13.967 7.54644 13.967C6.54488 13.967 5.86457 13.967 5.83622 13.4C5.84318 13.1511 5.90776 12.9066 6.02536 12.6841C6.14296 12.4616 6.31067 12.2666 6.51653 12.113ZM11.2598 0.800049C11.1345 0.800049 11.0143 0.847459 10.9257 0.931851C10.8371 1.01624 10.7874 1.1307 10.7874 1.25005V14.75C10.7874 14.8694 10.8371 14.9839 10.9257 15.0682C11.0143 15.1526 11.1345 15.2 11.2598 15.2C11.6357 15.2 11.9962 15.0578 12.262 14.8046C12.5278 14.5515 12.6771 14.2081 12.6771 13.85V2.15005C12.6771 1.79201 12.5278 1.44863 12.262 1.19545C11.9962 0.942281 11.6357 0.800049 11.2598 0.800049ZM14.255 1.40305C13.7332 1.40305 13.3102 1.82608 13.3102 2.34792V13.6522C13.3102 14.174 13.7332 14.597 14.255 14.597C14.3752 14.6099 14.4968 14.5981 14.6118 14.5626C14.7268 14.5271 14.8326 14.4687 14.922 14.3912C15.0114 14.3137 15.0825 14.2189 15.1304 14.1132C15.1783 14.0074 15.202 13.8932 15.1999 13.778V2.22205C15.202 2.10691 15.1783 1.99267 15.1304 1.88694C15.0825 1.78122 15.0114 1.68644 14.922 1.60894C14.8326 1.53143 14.7268 1.47298 14.6118 1.43748C14.4968 1.40197 14.3752 1.39024 14.255 1.40305Z" fill="#8E93A6"/>
</svg>